<svg xmlns="http://www.w3.org/2000/svg" viewBox="0 0 128 128" role="img" aria-label="CruxPad brand mark">
  <defs>
    <linearGradient id="cp-bg" x1="14" y1="10" x2="114" y2="118" gradientUnits="userSpaceOnUse">
      <stop offset="0" stop-color="#0a173d" />
      <stop offset="0.55" stop-color="#0f5de0" />
      <stop offset="1" stop-color="#06b39f" />
    </linearGradient>
    <radialGradient
      id="cp-glow"
      cx="0"
      cy="0"
      r="1"
      gradientUnits="userSpaceOnUse"
      gradientTransform="translate(34 24) rotate(42) scale(76 88)"
    >
      <stop offset="0" stop-color="#ffffff" stop-opacity="0.3" />
      <stop offset="1" stop-color="#ffffff" stop-opacity="0" />
    </radialGradient>
  </defs>

  <rect x="8" y="8" width="112" height="112" rx="30" fill="url(#cp-bg)" />
  <rect x="8" y="8" width="112" height="112" rx="30" fill="url(#cp-glow)" />

  <path
    d="M89 39.5C82.8 32.8 73.9 28.8 64 28.8C44.6 28.8 28.8 44.6 28.8 64C28.8 83.4 44.6 99.2 64 99.2C73.9 99.2 82.8 95.2 89 88.5"
    fill="none"
    stroke="#ffffff"
    stroke-width="11.5"
    stroke-linecap="round"
    stroke-linejoin="round"
  />
  <path d="M69.5 40.5V87.5" fill="none" stroke="#bfe9ff" stroke-width="7.8" stroke-linecap="round" />
  <path
    d="M69.5 40.5H78.6C87.1 40.5 94 47.4 94 55.9C94 64.4 87.1 71.3 78.6 71.3H69.5"
    fill="none"
    stroke="#bfe9ff"
    stroke-width="7.8"
    stroke-linecap="round"
    stroke-linejoin="round"
  />
  <circle cx="93.6" cy="55.9" r="4.2" fill="#8ef6db" />
</svg>
