<svg xmlns="http://www.w3.org/2000/svg" viewBox="0 0 64 64" role="img" aria-label="CruxPad favicon">
  <defs>
    <linearGradient id="cp-favicon-bg" x1="7" y1="5" x2="57" y2="59" gradientUnits="userSpaceOnUse">
      <stop offset="0" stop-color="#0a173d" />
      <stop offset="0.55" stop-color="#0f5de0" />
      <stop offset="1" stop-color="#06b39f" />
    </linearGradient>
    <radialGradient
      id="cp-favicon-glow"
      cx="0"
      cy="0"
      r="1"
      gradientUnits="userSpaceOnUse"
      gradientTransform="translate(17 12) rotate(42) scale(38 44)"
    >
      <stop offset="0" stop-color="#ffffff" stop-opacity="0.28" />
      <stop offset="1" stop-color="#ffffff" stop-opacity="0" />
    </radialGradient>
  </defs>

  <rect x="4" y="4" width="56" height="56" rx="15" fill="url(#cp-favicon-bg)" />
  <rect x="4" y="4" width="56" height="56" rx="15" fill="url(#cp-favicon-glow)" />

  <path
    d="M44.5 20.5C41.4 17.1 37 15.1 32 15.1C22.3 15.1 14.4 23 14.4 32.7C14.4 42.4 22.3 50.3 32 50.3C37 50.3 41.4 48.3 44.5 44.9"
    fill="none"
    stroke="#ffffff"
    stroke-width="5.7"
    stroke-linecap="round"
    stroke-linejoin="round"
  />
  <path d="M34.8 21V44.5" fill="none" stroke="#bfe9ff" stroke-width="3.9" stroke-linecap="round" />
  <path
    d="M34.8 21H39.4C43.7 21 47.2 24.5 47.2 28.8C47.2 33.1 43.7 36.6 39.4 36.6H34.8"
    fill="none"
    stroke="#bfe9ff"
    stroke-width="3.9"
    stroke-linecap="round"
    stroke-linejoin="round"
  />
</svg>
